<?xml version="1.0" encoding="UTF-8"?>
<svg id="katman_2" data-name="katman 2" xmlns="http://www.w3.org/2000/svg" viewBox="0 0 151.37 218.02">
  <defs>
    <style>
      .cls-1 {
        fill: #f74343;
      }
    </style>
  </defs>
  <g id="_Ñëîé_1" data-name="Ñëîé 1">
    <path class="cls-1" d="M101.68,173.74l-18-114.01c13.93-8.19,36.72,3.55,44.71,12.85,10.94,12.76,9.88,27.38,12.01,43.35,32.55-42.76-14.5-70.06-47.45-96.56-9.2-7.4-12.15-12.5-14.87-16.07-1.88-2.46-4.96-3.68-8.02-3.2-5.21,.82-8.77,5.72-7.95,10.93l22.23,140.77c-10.35-5.49-24.25-7.76-38.92-5.44C17.42,150.79-2.77,170.21,.31,189.75c3.09,19.54,28.28,31.79,56.27,27.37s48.18-23.84,45.1-43.38Z"/>
  </g>
</svg>